:SAMPLES-PER-SECOND 30
:FRAME-RANGE 1-1390
:FULLY-SPECIFIED
:DEGREES
1130
root  -15.8743 37.8768 -75.1367 -27.6277 -66.9594 19.3347
RightUpLeg  -9.25999 -8.59228 0.952282
RightLeg  37.6782 1.32315 0.816225
RightFoot  -15.7592 -0.428122 -8.32525
RightToes  -2.9104e-010 0 -3.6325e-017
Spine  26.6627 1.12094 -2.19347
Spine1  -1.1527 -2.98015 3.75999
HEad  -7.47933 32.5165 -17.1445
LeftShoulder1  2.60676 -4.03607 -28.5167
LeftArm  95.8536 -33.0274 -91.0483
LeftForeArm  -8.43852 -19.1051 -10.1843
LeftHand  -0.0876457 2.80832 3.36316
RightShoulder  14.2143 21.678 49.3147
RightArm  28.2663 7.27369 19.4595
RightForeArm  26.2372 27.3252 4.46964
RightHand  1.16548 7.55968 10.0222
LeftUpLeg  -92.0341 19.406 -63.7656
LeftLeg  121.581 -3.31517 4.47208
LeftFoot  9.85062 1.84065 -10.1421
LeftToes  5.45371e-012 -1.3743e-010 1.09575e-010
1131
root  -15.9853 37.5942 -75.4493 -26.6177 -63.9785 17.3209
RightUpLeg  -9.00353 -10.4278 0.897568
RightLeg  39.4501 0.106139 -0.196949
RightFoot  -17.0117 -0.543588 -8.63882
RightToes  -2.9104e-010 0 -3.6325e-017
Spine  26.4829 1.2858 -1.77385
Spine1  -0.798808 -2.67525 3.79468
HEad  -9.16099 30.6411 -17.5322
LeftShoulder1  2.65728 -4.05982 -29.089
LeftArm  99.4013 -32.1836 -91.073
LeftForeArm  -11.2102 -20.0139 -9.25997
LeftHand  -0.10101 2.56764 3.68506
RightShoulder  13.4638 20.7226 48.5642
RightArm  26.0913 6.23335 19.1133
RightForeArm  27.5066 28.91 4.75598
RightHand  1.15653 7.45497 10.029
LeftUpLeg  -91.1826 19.5646 -64.3654
LeftLeg  121.483 -4.50413 6.26868
LeftFoot  9.04651 1.35524 -7.83619
LeftToes  5.45371e-012 -1.3743e-010 1.09575e-010
1132
root  -16.1488 37.5978 -75.852 -24.8141 -60.6734 14.3087
RightUpLeg  -7.11663 -14.1582 0.971509
RightLeg  38.2094 -0.0496686 -0.326493
RightFoot  -17.1274 -0.602725 -9.61365
RightToes  -2.9104e-010 0 -3.6325e-017
Spine  26.1434 1.0407 -1.13387
Spine1  -0.33476 -2.74509 3.46346
HEad  -10.0386 28.529 -16.9492
LeftShoulder1  2.67579 -4.04937 -29.3885
LeftArm  100.812 -31.6209 -90.7841
LeftForeArm  -12.5099 -20.3881 -8.88165
LeftHand  -0.108359 2.44736 3.85251
RightShoulder  13.067 20.1781 48.2214
RightArm  24.6987 5.52276 19.1068
RightForeArm  28.3103 30.0836 4.98148
RightHand  1.14997 7.325 10.0788
LeftUpLeg  -90.6152 20.0702 -64.3071
LeftLeg  121.983 -4.32841 5.89142
LeftFoot  8.53303 1.12108 -6.69196
LeftToes  5.45371e-012 -1.3743e-010 1.09575e-010
1133
root  -16.287 37.9508 -76.3989 -24.1174 -58.2422 13.0607
RightUpLeg  -4.75572 -15.4321 1.41376
RightLeg  34.0556 -1.07414 -1.04746
RightFoot  -15.4421 -0.466737 -10.0982
RightToes  -2.9104e-010 0 -3.6325e-017
Spine  25.984 1.50001 -1.32891
Spine1  -0.748573 -2.33532 3.09312
HEad  -9.51974 26.3498 -15.5617
LeftShoulder1  2.67675 -4.13087 -29.016
LeftArm  100.48 -31.476 -90.6253
LeftForeArm  -13.317 -20.4114 -8.90575
LeftHand  -0.0970725 2.47525 3.42289
RightShoulder  12.9765 20.1036 48.0371
RightArm  24.1591 4.70758 19.6637
RightForeArm  29.3083 30.6702 5.06334
RightHand  1.10482 7.08087 9.8728
LeftUpLeg  -91.9668 21.3333 -65.3297
LeftLeg  122.99 -3.76371 4.86893
LeftFoot  7.85999 0.984314 -6.09962
LeftToes  5.45371e-012 -1.3743e-010 1.09575e-010
1134
root  -16.3553 38.6815 -76.9816 -23.8072 -56.2582 13.4713
RightUpLeg  -2.4472 -17.1662 0.978331
RightLeg  27.2438 -0.512777 -0.528804
RightFoot  -11.2183 -0.0643548 -10.3602
RightToes  -2.9104e-010 0 -3.6325e-017
Spine  24.9242 2.14276 -2.48794
Spine1  -1.45137 -1.95215 2.46744
HEad  -7.83369 24.6346 -13.6162
LeftShoulder1  2.63306 -4.1464 -28.3587
LeftArm  97.7882 -31.2836 -90.213
LeftForeArm  -11.9923 -19.8386 -9.52548
LeftHand  -0.0851476 2.51307 2.96647
RightShoulder  13.0776 20.1762 48.265
RightArm  24.6181 4.35937 20.4818
RightForeArm  28.6067 30.2089 4.9943
RightHand  0.987621 6.42107 9.31971
LeftUpLeg  -94.4208 22.2419 -67.4743
LeftLeg  123.651 -3.72934 4.69947
LeftFoot  8.33784 0.978824 -5.93421
LeftToes  5.45371e-012 -1.3743e-010 1.09575e-010
1135
root  -16.3473 39.6449 -77.6268 -22.792 -54.5031 13.7057
RightUpLeg  -0.31358 -15.3836 0.404046
RightLeg  19.0365 -2.08506 1.0391
RightFoot  -3.83215 0.555008 -8.8259
RightToes  -2.9104e-010 0 -3.6325e-017
Spine  23.9622 2.73132 -4.07784
Spine1  -2.54352 -1.76018 2.29285
HEad  -5.48355 23.3618 -11.2824
LeftShoulder1  2.60045 -4.18531 -27.7442
LeftArm  95.3366 -31.1176 -89.5146
LeftForeArm  -11.3371 -19.3153 -10.1159
LeftHand  -0.063652 2.63094 2.13922
RightShoulder  13.1654 20.1313 48.6878
RightArm  25.5269 4.67607 21.4609
RightForeArm  28.7281 29.0646 4.72472
RightHand  1.12757 7.25774 9.93246
LeftUpLeg  -97.0229 22.5537 -69.6794
LeftLeg  123.94 -4.2395 5.345
LeftFoot  8.8694 0.988223 -5.84619
LeftToes  5.45371e-012 -1.3743e-010 1.09575e-010
1136
root  -16.175 40.6408 -78.2521 -20.4883 -52.8266 12.8806
RightUpLeg  0.489988 -10.0346 0.201218
RightLeg  11.4641 -5.83383 3.22436
RightFoot  6.33434 0.849736 -5.17886
RightToes  -2.9104e-010 0 -3.6325e-017
Spine  23.4254 2.96496 -4.83801
Spine1  -3.92422 -1.73271 2.48768
HEad  -4.11839 22.1857 -10.1528
LeftShoulder1  2.60647 -4.27577 -27.4194
LeftArm  95.0457 -31.036 -89.1106
LeftForeArm  -12.7345 -19.3504 -10.1636
LeftHand  -0.0438859 2.83508 1.33733
RightShoulder  13.0569 19.9874 48.5833
RightArm  26.7007 5.02323 22.1869
RightForeArm  28.2941 28.2868 4.57282
RightHand  1.13832 7.46985 9.85413
LeftUpLeg  -98.8748 21.951 -71.2446
LeftLeg  123.565 -4.71204 6.07477
LeftFoot  9.30229 1.22896 -7.05469
LeftToes  5.45371e-012 -1.3743e-010 1.09575e-010
1137
root  -15.8472 41.2956 -78.8007 -17.9257 -51.3183 11.2837
RightUpLeg  0.721242 -8.57443 -0.0825056
RightLeg  6.5676 1.66293 3.88042
RightFoot  13.8189 -1.07726 5.25331
RightToes  -2.9104e-010 0 -3.6325e-017
Spine  23.6965 2.87369 -4.14522
Spine1  -5.09957 -1.56115 2.4129
HEad  -4.17801 20.7033 -10.0924
LeftShoulder1  2.62159 -4.28418 -27.5823
LeftArm  96.0184 -31.3915 -89.3271
LeftForeArm  -13.6602 -19.578 -9.95063
LeftHand  -0.0330586 2.9051 0.834603
RightShoulder  12.9666 20.1494 47.9045
RightArm  27.519 5.25222 22.2721
RightForeArm  27.9894 27.9218 4.50777
RightHand  1.15859 7.64619 9.89078
LeftUpLeg  -99.8334 20.801 -72.2888
LeftLeg  122.784 -5.19324 6.93907
LeftFoot  10.001 1.66339 -9.13876
LeftToes  5.45371e-012 -1.3743e-010 1.09575e-010
1138
root  -15.5145 41.5304 -79.3677 -16.1906 -49.9048 9.70465
RightUpLeg  -0.365493 -6.97251 0.0259635
RightLeg  9.18795 7.04666 2.82718
RightFoot  13.4367 -2.67449 12.5572
RightToes  -2.9104e-010 0 -3.6325e-017
Spine  23.9207 2.6066 -3.35493
Spine1  -5.06421 -1.51634 2.29363
HEad  -5.18928 19.3843 -10.0447
LeftShoulder1  2.63044 -4.32851 -27.5026
LeftArm  96.5192 -31.9089 -89.7751
LeftForeArm  -14.2592 -19.6334 -9.92305
LeftHand  -0.0309616 3.10051 0.743005
RightShoulder  13.2296 21.0762 46.9957
RightArm  28.5663 5.82076 22.3658
RightForeArm  26.9611 27.3103 4.4275
RightHand  1.17456 7.70462 9.98383
LeftUpLeg  -100.047 20.1283 -72.8694
LeftLeg  122.036 -5.64963 7.80125
LeftFoot  10.5116 1.97581 -10.5461
LeftToes  5.45371e-012 -1.3743e-010 1.09575e-010
1139
root  -15.2348 41.4333 -79.9466 -14.943 -47.9963 7.75708
RightUpLeg  -1.61153 -5.48032 0.650349
RightLeg  17.2096 5.62552 1.72214
RightFoot  9.54884 -1.60656 9.0556
RightToes  -2.9104e-010 0 -3.6325e-017
Spine  24.0201 2.11751 -3.09501
Spine1  -4.34827 -1.94727 2.93087
HEad  -6.1746 18.3449 -9.42716
LeftShoulder1  2.64924 -4.34777 -27.6646
LeftArm  93.9815 -32.7147 -89.9043
LeftForeArm  -11.6834 -18.9504 -10.5685
LeftHand  -0.0314113 3.28885 1.13175
RightShoulder  13.6089 21.9892 46.5816
RightArm  30.5817 6.91517 22.3525
RightForeArm  25.2238 26.5895 4.36232
RightHand  1.2014 7.68681 10.2338
LeftUpLeg  -99.3692 20.5956 -72.0244
LeftLeg  121.609 -5.44366 7.62609
LeftFoot  10.8555 2.72094 -14.1521
LeftToes  5.45371e-012 -1.3743e-010 1.09575e-010
1140
root  -15.0873 40.9151 -80.5064 -13.8168 -45.4712 5.4729
RightUpLeg  -1.77821 -2.29994 1.64241
RightLeg  25.5667 1.03962 0.314338
RightFoot  3.42439 -0.624554 4.99724
RightToes  -2.9104e-010 0 -3.6325e-017
Spine  23.9637 1.57039 -3.00564
Spine1  -3.88469 -2.58243 3.84371
HEad  -6.26033 16.7792 -8.22384
LeftShoulder1  2.68753 -4.33064 -28.2428
LeftArm  93.0621 -33.0381 -89.1999
LeftForeArm  -11.0826 -18.758 -10.7538
LeftHand  -0.0342521 3.38326 1.2086
RightShoulder  13.7626 22.2808 46.5682
RightArm  32.3829 7.76131 22.5173
RightForeArm  24.1239 25.8351 4.25709
RightHand  1.23226 7.83033 10.3837
LeftUpLeg  -98.4553 20.852 -70.9474
LeftLeg  121.635 -5.44523 7.62096
LeftFoot  11.1608 2.26589 -11.7031
LeftToes  5.45371e-012 -1.3743e-010 1.09575e-010
1141
root  -15.0043 39.9441 -81.0482 -13.2673 -42.5105 3.93347
RightUpLeg  -0.805256 -0.261405 2.16984
RightLeg  31.8801 -2.31091 -1.79586
RightFoot  -5.9319 -0.433006 8.29529
RightToes  -2.9104e-010 0 -3.6325e-017
Spine  23.7192 1.07011 -3.24824
Spine1  -3.7703 -3.16764 4.41506
HEad  -6.35162 14.3336 -7.08952
LeftShoulder1  2.71415 -4.32108 -28.6346
LeftArm  93.6872 -32.8095 -88.3744
LeftForeArm  -12.4893 -19.0445 -10.5097
LeftHand  -0.0360425 3.30675 1.05156
RightShoulder  13.7916 22.0443 47.1194
RightArm  33.3343 8.01559 22.1554
RightForeArm  23.7055 25.6645 4.24252
RightHand  1.21278 7.75548 10.2764
LeftUpLeg  -97.3611 20.7752 -70.4485
LeftLeg  121.816 -5.47491 7.61149
LeftFoot  10.7814 1.86728 -9.87186
LeftToes  5.45371e-012 -1.3743e-010 1.09575e-010
1142
root  -14.9905 38.7462 -81.5593 -13.0993 -39.2721 2.93152
RightUpLeg  0.767792 -0.0792851 2.96555
RightLeg  32.6387 -1.10665 -1.01517
RightFoot  -16.6062 0.0996247 4.6133
RightToes  -2.9104e-010 0 -3.6325e-017
Spine  22.7356 0.879596 -3.87286
Spine1  -2.99189 -3.58623 5.28793
HEad  -6.92848 11.423 -6.24782
LeftShoulder1  2.76989 -4.38876 -29.0531
LeftArm  92.8178 -32.9412 -88.3507
LeftForeArm  -11.5294 -18.8793 -10.6416
LeftHand  -0.0365298 3.44062 1.11331
RightShoulder  13.5474 21.6463 47.0233
RightArm  33.5421 7.95809 21.9307
RightForeArm  23.5938 26.0387 4.32949
RightHand  1.24074 7.72105 10.5497
LeftUpLeg  -95.8096 20.9633 -69.7065
LeftLeg  121.993 -4.87271 6.68386
LeftFoot  10.6736 2.10727 -11.1431
LeftToes  5.45371e-012 -1.3743e-010 1.09575e-010
1143
root  -14.9855 37.5173 -82.1055 -12.5497 -36.6586 0.493958
RightUpLeg  0.535545 -1.97982 6.74609
RightLeg  35.114 -6.4606 -5.12643
RightFoot  -24.5467 -0.316796 -1.30039
RightToes  -2.9104e-010 0 -3.6325e-017
Spine  22.5727 0.541825 -2.40335
Spine1  -1.98471 -3.61008 5.23729
HEad  -9.23058 8.29372 -5.27511
LeftShoulder1  2.7821 -4.35635 -29.359
LeftArm  91.2101 -33.1196 -88.3649
LeftForeArm  -9.26467 -18.4432 -11.0005
LeftHand  -0.0444797 3.48627 1.63575
RightShoulder  13.6333 21.6188 47.383
RightArm  33.3727 8.28002 21.3196
RightForeArm  23.6045 26.5816 4.44744
RightHand  1.2508 7.34847 10.9671
LeftUpLeg  -95.0762 22.0673 -67.9351
LeftLeg  122.43 -4.41741 5.91824
LeftFoot  10.9468 1.58432 -8.37302
LeftToes  5.45371e-012 -1.3743e-010 1.09575e-010
